<svg xmlns="http://www.w3.org/2000/svg" width="1440" height="645" viewBox="0 0 1440 645" fill="none"><style>.a{stroke-linecap:square;stroke-width:0.6;stroke:#D79163;}.b{stroke-linecap:round;stroke-linejoin:round;stroke-width:0.5;stroke:#D79163;}.c{clip-rule:evenodd;fill-rule:evenodd;fill:white;}</style><g clip-path="url(#clip0)"><rect width="1440" height="645" fill="#3F414C"/><g opacity="0.4"><path d="M666.5 120L1020.5 127.5" class="a"/><path d="M1057.5-0.5L936.5 50.5" class="a"/><path d="M734 121L936 51" class="a"/><path d="M1156.5 104.5L1056.5-1" class="a"/><path d="M1332.5 238.5L1156.5 104.5" class="a"/><path d="M1332.5 238.5L1306.5 78.5" class="a"/><path d="M1245.5 172.5L1306.5 78.5" class="a"/><path d="M1073.5 145.5L1156.5 104.5" class="a"/><path d="M1156.5 104.5L1021 126.5" class="a"/><path d="M1306.5 78.5L1058.5 1.5" class="a"/><path d="M1332.5 238.5L1021 127.5" class="a"/><path d="M1332.5 238.5L1159.5 258.5" class="a"/><path d="M1417.5 314.5L1159.5 259.5" class="a"/><path d="M1332.5 238.5L1417.5 314.5" class="a"/><path d="M1479.5 294.5L1417.5 314.5" class="a"/><path d="M1438.5 373.5L1417.5 314.5" class="a"/><path d="M1439.5 180.5L1417.5 314.5" class="a"/><path d="M1330.5 393.3L1417.5 314.5" class="a"/><path d="M1330.5 393.3L1417.5 314.5" class="a"/><path d="M1330.5 393.3L1029.5 497.5" class="a"/><path d="M1260.5 515.6L1027.5 499.4" class="a"/><path d="M660.5 510L528.5 499.5" class="a"/><path d="M660.5 510.5L633.5 660.5" class="a"/><path d="M634.5 660.5L529 498.5" class="a"/><path d="M633.5 660.5L474.5 605" class="a"/><path d="M493.5 713.5L474.5 604.5" class="a"/><path d="M485.5 583.5L529.5 498.5" class="a"/><path d="M485.5 583.5L444.5 662.5" class="a"/><path d="M299.5 711.5L395.5 526.5" class="a"/><path d="M335 642.5L228.5 607.5" class="a"/><path d="M395.5 526.5L180.5 536.5" class="a"/><path d="M89.5 536.5H181.5" class="a"/><path d="M89.5 536.5L296.5 712.5" class="a"/><path d="M89.5 536.5L2.5 615.5" class="a"/><path d="M219.5 647.5L2.5 615.5" class="a"/><path d="M41.5 697.5L2.5 615.5" class="a"/><path d="M105.5 436.5L2.5 615.5" class="a"/><path d="M89.5 536.5L105.5 436.5" class="a"/><path d="M39.5 550.5L-0.5 480.5" class="a"/><path d="M245.5 398L105.5 436.5" class="a"/><path d="M272.5 136.5L105.5 436.5" class="a"/><path d="M354.5 308.5L215.5 239.5" class="a"/><path d="M215.5 239.5L245 397" class="a"/><path d="M-1.5 425.5L105.5 436.5" class="a"/><path d="M-0.5 424.5L190 285" class="a"/><path d="M0 264L190 285" class="a"/><path d="M91.5 273.5L272.5 134.5" class="a"/><path d="M91.5 273.5L79.5 179.5" class="a"/><path d="M91.5 273.5L-0.5 113.5" class="a"/><path d="M271 135L-0.5 113.5" class="a"/><path d="M91-0.5L-0.5 113.5" class="a"/><path d="M83.5 8.5L103.5 121.5" class="a"/><path d="M0 14L39.5 63.5" class="a"/><path d="M83.5 8.5L269.5 134.5" class="a"/><path d="M217.5 0L270 135" class="a"/><path d="M217.5-0.5L379.5 184.5" class="a"/><path d="M306 100.5L495 116" class="a"/><path d="M494.5 0V116.5" class="a"/><path d="M667 120.5L528.5-1.5" class="a"/><path d="M666 120.5L733.5-1.5" class="a"/><path d="M734 121V-2" class="a"/><path d="M936.5 50.5L733.5-1.5" class="a"/><path d="M573.5 229.5L494.5 116.5" class="a"/><path d="M306 100L518-1" class="a"/><path d="M397.5-8.5L494.5 116.5" class="a"/><path d="M397.5-8.5L665.5 120" class="a"/><path d="M270.5 135.5L79.5 179.5" class="a"/><path d="M180.5 536.5L278.5 438.5" class="a"/><path d="M245.5 397.5L180.5 536.5" class="a"/><path d="M302.5 717.5L180.5 536.5" class="a"/><path d="M394.5 526.5L443.5 662.5" class="a"/><path d="M485.5 583.5L396.5 527.5" class="a"/><path d="M721.5 587.5L632.5 659.5" class="a"/><path d="M1149.5 595.5L1031.5 499.5" class="a"/><path d="M1020.3 616.5L1028.7 498.5" class="a"/><path d="M849.5 448.5L1028.5 498.5" class="a"/><path d="M849.5 448.5L1020 616.5" class="a"/><path d="M849.5 448.5V559.5" class="a"/><path d="M795 508L849.5 559.5" class="a"/><path d="M794.5 508.5L722 587.5" class="a"/><path d="M898.5 705.5L849.5 559.5" class="a"/><path d="M1020.5 616.5L849.5 559.5" class="a"/><path d="M721.5 587.5L849.5 559.5" class="a"/><path d="M722.5 587.5L592 424.5" class="a"/><path d="M721.5 587.5L903.5 707.5" class="a"/><path d="M1150 595.5L933.5 630.5" class="a"/><path d="M1331.5 590.5L1001.5 700.5" class="a"/><path d="M1261.5 515.5L1006.5 698.5" class="a"/><path d="M933.5 630.5L1006.5 698.5" class="a"/><path d="M933 631L899.5 694.5" class="a"/><path d="M1331.5 590.5L1278.5 703.5" class="a"/><path d="M1261.5 515.5L1438.5 704.5" class="a"/><path d="M1261.5 515.5L1451.5 581.5" class="a"/><path d="M1261.5 515.5L1330.5 393.5" class="a"/><path d="M1466.5 551.5L1331.5 393.5" class="a"/><path d="M1330.5 393.3L1450.5 371.5" class="a"/><path d="M1439.5 180.5L1332.5 238.5" class="a"/><path d="M1488.5 46.5L1363.5 5.5" class="a"/><path d="M1439.5 180.5L1306 78.5" class="a"/><path d="M1363.5 5.5L1306.5 78.5" class="a"/><path d="M1439.5 180.5L1363.5 5.5" class="a"/><path d="M1330.5 393.5L1171.5 350.5" class="a"/><path d="M1330.5 393.5L1176.5 428.5" class="a"/><path d="M1330.5 393.5L1159.5 260.5" class="a"/><path d="M1306.5 78.5L1156.5 104.5" class="a"/><path d="M1306.5 78.5L1245.5-1" class="a"/><path d="M1058.5 1.5L1020.5 127.5" class="a"/></g><path d="M904 384.5L794.9 509 583.4 330.7 419 495.2 430.1 323" class="b"/><path d="M276.6 438.3L244.8 398.5C246.9 396.9 360.2 309.4 360.2 309.4L430.1 323.2 380.4 187.4 270.7 136.7 360.2 309.7" class="b"/><path d="M430.1 323.2L478.9 206.5 574.7 235 666.1 120.7 764.8 212.9 1021.1 128.2" class="b"/><path d="M583.4 330.9L478.9 206.5 493.4 118 380.4 187.4 478.9 206.5" class="b"/><path d="M574.7 235L764.8 212.9 975 263.8" class="b"/><path d="M380.4 187.4L360.2 309.4" class="b"/><path d="M1176.7 428.8L1029 499.9C1023.2 493.5 904 384.7 904 384.7L975 263.8 583.4 330.9 795.5 369.9 975 263.8 574.7 235 583.4 330.9 430.1 323.2 276.6 438.3 395.6 528.2 419 495.6" class="b"/><path d="M395.6 528.2L527 499.9 591.6 424 795 509.4 795.5 369.9 904 384.7 1176.7 428.8 1171.2 351.6C1166.4 349.2 975 263.8 975 263.8L1021.1 128.2 1158.2 260.6 1171.2 351.6 1052 356.8" class="b"/><path d="M591.6 424L583.4 330.9 660.7 273.1 574.7 235" class="b"/><path d="M661.7 272.1L976 262.8 1053 355.8" class="b"/><path d="M904 384.7L1052 356.8 1176.7 428.8" class="b"/><path d="M1157.1 260.3L975 263.8" class="b"/><g filter="url(#filter0_d)"><path d="M382.6 187.2C382.6 188.5 381.5 189.6 380.2 189.6 378.9 189.6 377.9 188.5 377.9 187.2 377.9 185.9 378.9 184.9 380.2 184.9 381.5 184.9 382.6 185.9 382.6 187.2" class="c"/></g><g filter="url(#filter1_d)"><path d="M1022.6 127.2C1022.6 128.5 1021.5 129.6 1020.2 129.6 1018.9 129.6 1017.9 128.5 1017.9 127.2 1017.9 125.9 1018.9 124.9 1020.2 124.9 1021.5 124.9 1022.6 125.9 1022.6 127.2" class="c"/></g><g filter="url(#filter2_d)"><path d="M496.3 117.6C496.3 118.9 495.2 120 493.9 120 492.6 120 491.6 118.9 491.6 117.6 491.6 116.3 492.6 115.3 493.9 115.3 495.2 115.3 496.3 116.3 496.3 117.6" class="c"/></g><g filter="url(#filter3_d)"><path d="M481.1 206.2C481.1 207.5 480 208.6 478.7 208.6 477.4 208.6 476.4 207.5 476.4 206.2 476.4 204.9 477.4 203.9 478.7 203.9 480 203.9 481.1 204.9 481.1 206.2" class="c"/></g><g filter="url(#filter4_d)"><path d="M668.4 121.1C668.4 122.4 667.4 123.4 666.1 123.4 664.8 123.4 663.7 122.4 663.7 121.1 663.7 119.8 664.8 118.7 666.1 118.7 667.4 118.7 668.4 119.8 668.4 121.1" class="c"/></g><g filter="url(#filter5_d)"><path d="M577.4 235C577.4 236.3 576.4 237.4 575.1 237.4 573.8 237.4 572.7 236.3 572.7 235 572.7 233.7 573.8 232.6 575.1 232.6 576.4 232.6 577.4 233.7 577.4 235" class="c"/></g><g filter="url(#filter6_d)"><path d="M662.6 272.8C662.6 274.1 661.5 275.2 660.2 275.2 658.9 275.2 657.9 274.1 657.9 272.8 657.9 271.5 658.9 270.4 660.2 270.4 661.5 270.4 662.6 271.5 662.6 272.8" class="c"/></g><g filter="url(#filter7_d)"><path d="M768.1 212.7C768.1 214 767 215.1 765.7 215.1 764.4 215.1 763.4 214 763.4 212.7 763.4 211.4 764.4 210.4 765.7 210.4 767 210.4 768.1 211.4 768.1 212.7" class="c"/></g><g filter="url(#filter8_d)"><path d="M977.4 263.8C977.4 265.1 976.4 266.2 975.1 266.2 973.8 266.2 972.7 265.1 972.7 263.8 972.7 262.5 973.8 261.5 975.1 261.5 976.4 261.5 977.4 262.5 977.4 263.8" class="c"/></g><g filter="url(#filter9_d)"><path d="M1160.1 259.9C1160.1 261.2 1159.1 262.2 1157.8 262.2 1156.5 262.2 1155.4 261.2 1155.4 259.9 1155.4 258.6 1156.5 257.5 1157.8 257.5 1159.1 257.5 1160.1 258.6 1160.1 259.9" class="c"/></g><g filter="url(#filter10_d)"><path d="M1173.1 350.6C1173.1 351.9 1172 352.9 1170.7 352.9 1169.4 352.9 1168.4 351.9 1168.4 350.6 1168.4 349.3 1169.4 348.2 1170.7 348.2 1172 348.2 1173.1 349.3 1173.1 350.6" class="c"/></g><g filter="url(#filter11_d)"><path d="M1178.4 428.6C1178.4 429.9 1177.3 430.9 1176 430.9 1174.7 430.9 1173.7 429.9 1173.7 428.6 1173.7 427.3 1174.7 426.2 1176 426.2 1177.3 426.2 1178.4 427.3 1178.4 428.6" class="c"/></g><g filter="url(#filter12_d)"><path d="M906.7 384.6C906.7 385.9 905.7 387 904.4 387 903.1 387 902 385.9 902 384.6 902 383.3 903.1 382.3 904.4 382.3 905.7 382.3 906.7 383.3 906.7 384.6" class="c"/></g><g filter="url(#filter13_d)"><path d="M1054.2 356.8C1054.2 358.1 1053.2 359.1 1051.9 359.1 1050.6 359.1 1049.5 358.1 1049.5 356.8 1049.5 355.5 1050.6 354.4 1051.9 354.4 1053.2 354.4 1054.2 355.5 1054.2 356.8" class="c"/></g><g filter="url(#filter14_d)"><path d="M529.6 499.3C529.6 500.6 528.5 501.7 527.2 501.7 525.9 501.7 524.9 500.6 524.9 499.3 524.9 498 525.9 497 527.2 497 528.5 497 529.6 498 529.6 499.3" class="c"/></g><g filter="url(#filter15_d)"><path d="M798.7 370.3C798.7 371.6 797.7 372.6 796.4 372.6 795.1 372.6 794 371.6 794 370.3 794 369 795.1 367.9 796.4 367.9 797.7 367.9 798.7 369 798.7 370.3" class="c"/></g><g filter="url(#filter16_d)"><path d="M586.1 330.4C586.1 331.7 585.1 332.8 583.8 332.8 582.5 332.8 581.4 331.7 581.4 330.4 581.4 329.1 582.5 328.1 583.8 328.1 585.1 328.1 586.1 329.1 586.1 330.4" class="c"/></g><g filter="url(#filter17_d)"><path d="M432.1 323.3C432.1 324.6 431 325.6 429.7 325.6 428.4 325.6 427.4 324.6 427.4 323.3 427.4 322 428.4 320.9 429.7 320.9 431 320.9 432.1 322 432.1 323.3" class="c"/></g><g filter="url(#filter18_d)"><path d="M362.2 309.7C362.2 311 361.1 312.1 359.8 312.1 358.5 312.1 357.5 311 357.5 309.7 357.5 308.4 358.5 307.4 359.8 307.4 361.1 307.4 362.2 308.4 362.2 309.7" class="c"/></g><g filter="url(#filter19_d)"><path d="M273.6 136.5C273.6 137.8 272.6 138.8 271.3 138.8 270 138.8 268.9 137.8 268.9 136.5 268.9 135.2 270 134.1 271.3 134.1 272.6 134.1 273.6 135.2 273.6 136.5" class="c"/></g><g filter="url(#filter20_d)"><path d="M247.7 398.5C247.7 399.8 246.6 400.9 245.4 400.9 244.1 400.9 243 399.8 243 398.5 243 397.2 244.1 396.2 245.4 396.2 246.6 396.2 247.7 397.2 247.7 398.5" class="c"/></g><g filter="url(#filter21_d)"><path d="M279.6 438.2C279.6 439.5 278.5 440.5 277.3 440.5 276 440.5 274.9 439.5 274.9 438.2 274.9 436.9 276 435.8 277.3 435.8 278.5 435.8 279.6 436.9 279.6 438.2" class="c"/></g><g filter="url(#filter22_d)"><path d="M421.8 495.4C421.8 496.7 420.7 497.8 419.4 497.8 418.1 497.8 417.1 496.7 417.1 495.4 417.1 494.1 418.1 493.1 419.4 493.1 420.7 493.1 421.8 494.1 421.8 495.4" class="c"/></g><g filter="url(#filter23_d)"><path d="M594 424.8C594 426.1 592.9 427.1 591.6 427.1 590.3 427.1 589.3 426.1 589.3 424.8 589.3 423.5 590.3 422.4 591.6 422.4 592.9 422.4 594 423.5 594 424.8" class="c"/></g><g filter="url(#filter24_d)"><path d="M796.8 508.2C796.8 509.5 795.8 510.6 794.5 510.6 793.2 510.6 792.1 509.5 792.1 508.2 792.1 507 793.2 505.9 794.5 505.9 795.8 505.9 796.8 507 796.8 508.2" class="c"/></g><g filter="url(#filter25_d)"><path d="M1030.9 499.2C1030.9 500.5 1029.9 501.6 1028.6 501.6 1027.3 501.6 1026.2 500.5 1026.2 499.2 1026.2 497.9 1027.3 496.8 1028.6 496.8 1029.9 496.8 1030.9 497.9 1030.9 499.2" class="c"/></g><g filter="url(#filter26_d)"><path d="M398.1 527.6C398.1 528.9 397.1 530 395.8 530 394.5 530 393.4 528.9 393.4 527.6 393.4 526.3 394.5 525.3 395.8 525.3 397.1 525.3 398.1 526.3 398.1 527.6" class="c"/></g></g><defs><filter id="filter0_d" x="363.9" y="172.9" width="32.7" height="32.7" filterUnits="userSpaceOnUse" color-interpolation-filters="sRGB"><feFlood flood-opacity="0" result="BackgroundImageFix"/><feColorMatrix in="SourceAlpha" type="matrix" values="0 0 0 0 0 0 0 0 0 0 0 0 0 0 0 0 0 0 127 0"/><feOffset dy="2"/><feGaussianBlur stdDeviation="7"/><feColorMatrix type="matrix" values="0 0 0 0 0 0 0 0 0 0 0 0 0 0 0 0 0 0 1 0"/><feBlend mode="normal" in2="BackgroundImageFix" result="effect1_dropShadow"/><feBlend mode="normal" in="SourceGraphic" in2="effect1_dropShadow" result="shape"/></filter><filter id="filter1_d" x="1003.9" y="112.9" width="32.7" height="32.7" filterUnits="userSpaceOnUse" color-interpolation-filters="sRGB"><feFlood flood-opacity="0" result="BackgroundImageFix"/><feColorMatrix in="SourceAlpha" type="matrix" values="0 0 0 0 0 0 0 0 0 0 0 0 0 0 0 0 0 0 127 0"/><feOffset dy="2"/><feGaussianBlur stdDeviation="7"/><feColorMatrix type="matrix" values="0 0 0 0 0 0 0 0 0 0 0 0 0 0 0 0 0 0 1 0"/><feBlend mode="normal" in2="BackgroundImageFix" result="effect1_dropShadow"/><feBlend mode="normal" in="SourceGraphic" in2="effect1_dropShadow" result="shape"/></filter><filter id="filter2_d" x="477.6" y="103.3" width="32.7" height="32.7" filterUnits="userSpaceOnUse" color-interpolation-filters="sRGB"><feFlood flood-opacity="0" result="BackgroundImageFix"/><feColorMatrix in="SourceAlpha" type="matrix" values="0 0 0 0 0 0 0 0 0 0 0 0 0 0 0 0 0 0 127 0"/><feOffset dy="2"/><feGaussianBlur stdDeviation="7"/><feColorMatrix type="matrix" values="0 0 0 0 0 0 0 0 0 0 0 0 0 0 0 0 0 0 1 0"/><feBlend mode="normal" in2="BackgroundImageFix" result="effect1_dropShadow"/><feBlend mode="normal" in="SourceGraphic" in2="effect1_dropShadow" result="shape"/></filter><filter id="filter3_d" x="462.4" y="191.9" width="32.7" height="32.7" filterUnits="userSpaceOnUse" color-interpolation-filters="sRGB"><feFlood flood-opacity="0" result="BackgroundImageFix"/><feColorMatrix in="SourceAlpha" type="matrix" values="0 0 0 0 0 0 0 0 0 0 0 0 0 0 0 0 0 0 127 0"/><feOffset dy="2"/><feGaussianBlur stdDeviation="7"/><feColorMatrix type="matrix" values="0 0 0 0 0 0 0 0 0 0 0 0 0 0 0 0 0 0 1 0"/><feBlend mode="normal" in2="BackgroundImageFix" result="effect1_dropShadow"/><feBlend mode="normal" in="SourceGraphic" in2="effect1_dropShadow" result="shape"/></filter><filter id="filter4_d" x="649.7" y="106.7" width="32.7" height="32.7" filterUnits="userSpaceOnUse" color-interpolation-filters="sRGB"><feFlood flood-opacity="0" result="BackgroundImageFix"/><feColorMatrix in="SourceAlpha" type="matrix" values="0 0 0 0 0 0 0 0 0 0 0 0 0 0 0 0 0 0 127 0"/><feOffset dy="2"/><feGaussianBlur stdDeviation="7"/><feColorMatrix type="matrix" values="0 0 0 0 0 0 0 0 0 0 0 0 0 0 0 0 0 0 1 0"/><feBlend mode="normal" in2="BackgroundImageFix" result="effect1_dropShadow"/><feBlend mode="normal" in="SourceGraphic" in2="effect1_dropShadow" result="shape"/></filter><filter id="filter5_d" x="558.7" y="220.6" width="32.7" height="32.7" filterUnits="userSpaceOnUse" color-interpolation-filters="sRGB"><feFlood flood-opacity="0" result="BackgroundImageFix"/><feColorMatrix in="SourceAlpha" type="matrix" values="0 0 0 0 0 0 0 0 0 0 0 0 0 0 0 0 0 0 127 0"/><feOffset dy="2"/><feGaussianBlur stdDeviation="7"/><feColorMatrix type="matrix" values="0 0 0 0 0 0 0 0 0 0 0 0 0 0 0 0 0 0 1 0"/><feBlend mode="normal" in2="BackgroundImageFix" result="effect1_dropShadow"/><feBlend mode="normal" in="SourceGraphic" in2="effect1_dropShadow" result="shape"/></filter><filter id="filter6_d" x="643.9" y="258.4" width="32.7" height="32.7" filterUnits="userSpaceOnUse" color-interpolation-filters="sRGB"><feFlood flood-opacity="0" result="BackgroundImageFix"/><feColorMatrix in="SourceAlpha" type="matrix" values="0 0 0 0 0 0 0 0 0 0 0 0 0 0 0 0 0 0 127 0"/><feOffset dy="2"/><feGaussianBlur stdDeviation="7"/><feColorMatrix type="matrix" values="0 0 0 0 0 0 0 0 0 0 0 0 0 0 0 0 0 0 1 0"/><feBlend mode="normal" in2="BackgroundImageFix" result="effect1_dropShadow"/><feBlend mode="normal" in="SourceGraphic" in2="effect1_dropShadow" result="shape"/></filter><filter id="filter7_d" x="749.4" y="198.4" width="32.7" height="32.7" filterUnits="userSpaceOnUse" color-interpolation-filters="sRGB"><feFlood flood-opacity="0" result="BackgroundImageFix"/><feColorMatrix in="SourceAlpha" type="matrix" values="0 0 0 0 0 0 0 0 0 0 0 0 0 0 0 0 0 0 127 0"/><feOffset dy="2"/><feGaussianBlur stdDeviation="7"/><feColorMatrix type="matrix" values="0 0 0 0 0 0 0 0 0 0 0 0 0 0 0 0 0 0 1 0"/><feBlend mode="normal" in2="BackgroundImageFix" result="effect1_dropShadow"/><feBlend mode="normal" in="SourceGraphic" in2="effect1_dropShadow" result="shape"/></filter><filter id="filter8_d" x="958.7" y="249.5" width="32.7" height="32.7" filterUnits="userSpaceOnUse" color-interpolation-filters="sRGB"><feFlood flood-opacity="0" result="BackgroundImageFix"/><feColorMatrix in="SourceAlpha" type="matrix" values="0 0 0 0 0 0 0 0 0 0 0 0 0 0 0 0 0 0 127 0"/><feOffset dy="2"/><feGaussianBlur stdDeviation="7"/><feColorMatrix type="matrix" values="0 0 0 0 0 0 0 0 0 0 0 0 0 0 0 0 0 0 1 0"/><feBlend mode="normal" in2="BackgroundImageFix" result="effect1_dropShadow"/><feBlend mode="normal" in="SourceGraphic" in2="effect1_dropShadow" result="shape"/></filter><filter id="filter9_d" x="1141.4" y="245.5" width="32.7" height="32.7" filterUnits="userSpaceOnUse" color-interpolation-filters="sRGB"><feFlood flood-opacity="0" result="BackgroundImageFix"/><feColorMatrix in="SourceAlpha" type="matrix" values="0 0 0 0 0 0 0 0 0 0 0 0 0 0 0 0 0 0 127 0"/><feOffset dy="2"/><feGaussianBlur stdDeviation="7"/><feColorMatrix type="matrix" values="0 0 0 0 0 0 0 0 0 0 0 0 0 0 0 0 0 0 1 0"/><feBlend mode="normal" in2="BackgroundImageFix" result="effect1_dropShadow"/><feBlend mode="normal" in="SourceGraphic" in2="effect1_dropShadow" result="shape"/></filter><filter id="filter10_d" x="1154.4" y="336.2" width="32.7" height="32.7" filterUnits="userSpaceOnUse" color-interpolation-filters="sRGB"><feFlood flood-opacity="0" result="BackgroundImageFix"/><feColorMatrix in="SourceAlpha" type="matrix" values="0 0 0 0 0 0 0 0 0 0 0 0 0 0 0 0 0 0 127 0"/><feOffset dy="2"/><feGaussianBlur stdDeviation="7"/><feColorMatrix type="matrix" values="0 0 0 0 0 0 0 0 0 0 0 0 0 0 0 0 0 0 1 0"/><feBlend mode="normal" in2="BackgroundImageFix" result="effect1_dropShadow"/><feBlend mode="normal" in="SourceGraphic" in2="effect1_dropShadow" result="shape"/></filter><filter id="filter11_d" x="1159.7" y="414.2" width="32.7" height="32.7" filterUnits="userSpaceOnUse" color-interpolation-filters="sRGB"><feFlood flood-opacity="0" result="BackgroundImageFix"/><feColorMatrix in="SourceAlpha" type="matrix" values="0 0 0 0 0 0 0 0 0 0 0 0 0 0 0 0 0 0 127 0"/><feOffset dy="2"/><feGaussianBlur stdDeviation="7"/><feColorMatrix type="matrix" values="0 0 0 0 0 0 0 0 0 0 0 0 0 0 0 0 0 0 1 0"/><feBlend mode="normal" in2="BackgroundImageFix" result="effect1_dropShadow"/><feBlend mode="normal" in="SourceGraphic" in2="effect1_dropShadow" result="shape"/></filter><filter id="filter12_d" x="888" y="370.3" width="32.7" height="32.7" filterUnits="userSpaceOnUse" color-interpolation-filters="sRGB"><feFlood flood-opacity="0" result="BackgroundImageFix"/><feColorMatrix in="SourceAlpha" type="matrix" values="0 0 0 0 0 0 0 0 0 0 0 0 0 0 0 0 0 0 127 0"/><feOffset dy="2"/><feGaussianBlur stdDeviation="7"/><feColorMatrix type="matrix" values="0 0 0 0 0 0 0 0 0 0 0 0 0 0 0 0 0 0 1 0"/><feBlend mode="normal" in2="BackgroundImageFix" result="effect1_dropShadow"/><feBlend mode="normal" in="SourceGraphic" in2="effect1_dropShadow" result="shape"/></filter><filter id="filter13_d" x="1035.5" y="342.4" width="32.7" height="32.7" filterUnits="userSpaceOnUse" color-interpolation-filters="sRGB"><feFlood flood-opacity="0" result="BackgroundImageFix"/><feColorMatrix in="SourceAlpha" type="matrix" values="0 0 0 0 0 0 0 0 0 0 0 0 0 0 0 0 0 0 127 0"/><feOffset dy="2"/><feGaussianBlur stdDeviation="7"/><feColorMatrix type="matrix" values="0 0 0 0 0 0 0 0 0 0 0 0 0 0 0 0 0 0 1 0"/><feBlend mode="normal" in2="BackgroundImageFix" result="effect1_dropShadow"/><feBlend mode="normal" in="SourceGraphic" in2="effect1_dropShadow" result="shape"/></filter><filter id="filter14_d" x="510.9" y="485" width="32.7" height="32.7" filterUnits="userSpaceOnUse" color-interpolation-filters="sRGB"><feFlood flood-opacity="0" result="BackgroundImageFix"/><feColorMatrix in="SourceAlpha" type="matrix" values="0 0 0 0 0 0 0 0 0 0 0 0 0 0 0 0 0 0 127 0"/><feOffset dy="2"/><feGaussianBlur stdDeviation="7"/><feColorMatrix type="matrix" values="0 0 0 0 0 0 0 0 0 0 0 0 0 0 0 0 0 0 1 0"/><feBlend mode="normal" in2="BackgroundImageFix" result="effect1_dropShadow"/><feBlend mode="normal" in="SourceGraphic" in2="effect1_dropShadow" result="shape"/></filter><filter id="filter15_d" x="780" y="355.9" width="32.7" height="32.7" filterUnits="userSpaceOnUse" color-interpolation-filters="sRGB"><feFlood flood-opacity="0" result="BackgroundImageFix"/><feColorMatrix in="SourceAlpha" type="matrix" values="0 0 0 0 0 0 0 0 0 0 0 0 0 0 0 0 0 0 127 0"/><feOffset dy="2"/><feGaussianBlur stdDeviation="7"/><feColorMatrix type="matrix" values="0 0 0 0 0 0 0 0 0 0 0 0 0 0 0 0 0 0 1 0"/><feBlend mode="normal" in2="BackgroundImageFix" result="effect1_dropShadow"/><feBlend mode="normal" in="SourceGraphic" in2="effect1_dropShadow" result="shape"/></filter><filter id="filter16_d" x="567.4" y="316.1" width="32.7" height="32.7" filterUnits="userSpaceOnUse" color-interpolation-filters="sRGB"><feFlood flood-opacity="0" result="BackgroundImageFix"/><feColorMatrix in="SourceAlpha" type="matrix" values="0 0 0 0 0 0 0 0 0 0 0 0 0 0 0 0 0 0 127 0"/><feOffset dy="2"/><feGaussianBlur stdDeviation="7"/><feColorMatrix type="matrix" values="0 0 0 0 0 0 0 0 0 0 0 0 0 0 0 0 0 0 1 0"/><feBlend mode="normal" in2="BackgroundImageFix" result="effect1_dropShadow"/><feBlend mode="normal" in="SourceGraphic" in2="effect1_dropShadow" result="shape"/></filter><filter id="filter17_d" x="413.4" y="308.9" width="32.7" height="32.7" filterUnits="userSpaceOnUse" color-interpolation-filters="sRGB"><feFlood flood-opacity="0" result="BackgroundImageFix"/><feColorMatrix in="SourceAlpha" type="matrix" values="0 0 0 0 0 0 0 0 0 0 0 0 0 0 0 0 0 0 127 0"/><feOffset dy="2"/><feGaussianBlur stdDeviation="7"/><feColorMatrix type="matrix" values="0 0 0 0 0 0 0 0 0 0 0 0 0 0 0 0 0 0 1 0"/><feBlend mode="normal" in2="BackgroundImageFix" result="effect1_dropShadow"/><feBlend mode="normal" in="SourceGraphic" in2="effect1_dropShadow" result="shape"/></filter><filter id="filter18_d" x="343.5" y="295.4" width="32.7" height="32.7" filterUnits="userSpaceOnUse" color-interpolation-filters="sRGB"><feFlood flood-opacity="0" result="BackgroundImageFix"/><feColorMatrix in="SourceAlpha" type="matrix" values="0 0 0 0 0 0 0 0 0 0 0 0 0 0 0 0 0 0 127 0"/><feOffset dy="2"/><feGaussianBlur stdDeviation="7"/><feColorMatrix type="matrix" values="0 0 0 0 0 0 0 0 0 0 0 0 0 0 0 0 0 0 1 0"/><feBlend mode="normal" in2="BackgroundImageFix" result="effect1_dropShadow"/><feBlend mode="normal" in="SourceGraphic" in2="effect1_dropShadow" result="shape"/></filter><filter id="filter19_d" x="254.9" y="122.1" width="32.7" height="32.7" filterUnits="userSpaceOnUse" color-interpolation-filters="sRGB"><feFlood flood-opacity="0" result="BackgroundImageFix"/><feColorMatrix in="SourceAlpha" type="matrix" values="0 0 0 0 0 0 0 0 0 0 0 0 0 0 0 0 0 0 127 0"/><feOffset dy="2"/><feGaussianBlur stdDeviation="7"/><feColorMatrix type="matrix" values="0 0 0 0 0 0 0 0 0 0 0 0 0 0 0 0 0 0 1 0"/><feBlend mode="normal" in2="BackgroundImageFix" result="effect1_dropShadow"/><feBlend mode="normal" in="SourceGraphic" in2="effect1_dropShadow" result="shape"/></filter><filter id="filter20_d" x="229" y="384.2" width="32.7" height="32.7" filterUnits="userSpaceOnUse" color-interpolation-filters="sRGB"><feFlood flood-opacity="0" result="BackgroundImageFix"/><feColorMatrix in="SourceAlpha" type="matrix" values="0 0 0 0 0 0 0 0 0 0 0 0 0 0 0 0 0 0 127 0"/><feOffset dy="2"/><feGaussianBlur stdDeviation="7"/><feColorMatrix type="matrix" values="0 0 0 0 0 0 0 0 0 0 0 0 0 0 0 0 0 0 1 0"/><feBlend mode="normal" in2="BackgroundImageFix" result="effect1_dropShadow"/><feBlend mode="normal" in="SourceGraphic" in2="effect1_dropShadow" result="shape"/></filter><filter id="filter21_d" x="260.9" y="423.8" width="32.7" height="32.7" filterUnits="userSpaceOnUse" color-interpolation-filters="sRGB"><feFlood flood-opacity="0" result="BackgroundImageFix"/><feColorMatrix in="SourceAlpha" type="matrix" values="0 0 0 0 0 0 0 0 0 0 0 0 0 0 0 0 0 0 127 0"/><feOffset dy="2"/><feGaussianBlur stdDeviation="7"/><feColorMatrix type="matrix" values="0 0 0 0 0 0 0 0 0 0 0 0 0 0 0 0 0 0 1 0"/><feBlend mode="normal" in2="BackgroundImageFix" result="effect1_dropShadow"/><feBlend mode="normal" in="SourceGraphic" in2="effect1_dropShadow" result="shape"/></filter><filter id="filter22_d" x="403.1" y="481.1" width="32.7" height="32.7" filterUnits="userSpaceOnUse" color-interpolation-filters="sRGB"><feFlood flood-opacity="0" result="BackgroundImageFix"/><feColorMatrix in="SourceAlpha" type="matrix" values="0 0 0 0 0 0 0 0 0 0 0 0 0 0 0 0 0 0 127 0"/><feOffset dy="2"/><feGaussianBlur stdDeviation="7"/><feColorMatrix type="matrix" values="0 0 0 0 0 0 0 0 0 0 0 0 0 0 0 0 0 0 1 0"/><feBlend mode="normal" in2="BackgroundImageFix" result="effect1_dropShadow"/><feBlend mode="normal" in="SourceGraphic" in2="effect1_dropShadow" result="shape"/></filter><filter id="filter23_d" x="575.3" y="410.4" width="32.7" height="32.7" filterUnits="userSpaceOnUse" color-interpolation-filters="sRGB"><feFlood flood-opacity="0" result="BackgroundImageFix"/><feColorMatrix in="SourceAlpha" type="matrix" values="0 0 0 0 0 0 0 0 0 0 0 0 0 0 0 0 0 0 127 0"/><feOffset dy="2"/><feGaussianBlur stdDeviation="7"/><feColorMatrix type="matrix" values="0 0 0 0 0 0 0 0 0 0 0 0 0 0 0 0 0 0 1 0"/><feBlend mode="normal" in2="BackgroundImageFix" result="effect1_dropShadow"/><feBlend mode="normal" in="SourceGraphic" in2="effect1_dropShadow" result="shape"/></filter><filter id="filter24_d" x="778.1" y="493.9" width="32.7" height="32.7" filterUnits="userSpaceOnUse" color-interpolation-filters="sRGB"><feFlood flood-opacity="0" result="BackgroundImageFix"/><feColorMatrix in="SourceAlpha" type="matrix" values="0 0 0 0 0 0 0 0 0 0 0 0 0 0 0 0 0 0 127 0"/><feOffset dy="2"/><feGaussianBlur stdDeviation="7"/><feColorMatrix type="matrix" values="0 0 0 0 0 0 0 0 0 0 0 0 0 0 0 0 0 0 1 0"/><feBlend mode="normal" in2="BackgroundImageFix" result="effect1_dropShadow"/><feBlend mode="normal" in="SourceGraphic" in2="effect1_dropShadow" result="shape"/></filter><filter id="filter25_d" x="1012.2" y="484.8" width="32.7" height="32.7" filterUnits="userSpaceOnUse" color-interpolation-filters="sRGB"><feFlood flood-opacity="0" result="BackgroundImageFix"/><feColorMatrix in="SourceAlpha" type="matrix" values="0 0 0 0 0 0 0 0 0 0 0 0 0 0 0 0 0 0 127 0"/><feOffset dy="2"/><feGaussianBlur stdDeviation="7"/><feColorMatrix type="matrix" values="0 0 0 0 0 0 0 0 0 0 0 0 0 0 0 0 0 0 1 0"/><feBlend mode="normal" in2="BackgroundImageFix" result="effect1_dropShadow"/><feBlend mode="normal" in="SourceGraphic" in2="effect1_dropShadow" result="shape"/></filter><filter id="filter26_d" x="379.4" y="513.3" width="32.7" height="32.7" filterUnits="userSpaceOnUse" color-interpolation-filters="sRGB"><feFlood flood-opacity="0" result="BackgroundImageFix"/><feColorMatrix in="SourceAlpha" type="matrix" values="0 0 0 0 0 0 0 0 0 0 0 0 0 0 0 0 0 0 127 0"/><feOffset dy="2"/><feGaussianBlur stdDeviation="7"/><feColorMatrix type="matrix" values="0 0 0 0 0 0 0 0 0 0 0 0 0 0 0 0 0 0 1 0"/><feBlend mode="normal" in2="BackgroundImageFix" result="effect1_dropShadow"/><feBlend mode="normal" in="SourceGraphic" in2="effect1_dropShadow" result="shape"/></filter><clipPath id="clip0"><rect width="1440" height="645" fill="white"/></clipPath></defs></svg>
